<mxfile host="65bd71144e">
    <diagram id="QnBbF4oTYr3thX7JVEva" name="Entidades">
        <mxGraphModel dx="663" dy="437" grid="1" gridSize="10" guides="1" tooltips="1" connect="1" arrows="1" fold="1" page="1" pageScale="1" pageWidth="827" pageHeight="1169" math="0" shadow="0">
            <root>
                <mxCell id="0"/>
                <mxCell id="1" parent="0"/>
                <mxCell id="6" style="edgeStyle=none;html=1;entryX=0;entryY=0;entryDx=0;entryDy=0;fillColor=#f5f5f5;strokeColor=#FFFFFF;" parent="1" source="2" target="5" edge="1">
                    <mxGeometry relative="1" as="geometry"/>
                </mxCell>
                <mxCell id="2" value="Cliente" style="rounded=0;whiteSpace=wrap;html=1;fillColor=#647687;fontColor=#ffffff;strokeColor=#314354;" parent="1" vertex="1">
                    <mxGeometry x="290" y="100" width="120" height="60" as="geometry"/>
                </mxCell>
                <mxCell id="7" style="edgeStyle=none;html=1;entryX=1;entryY=0;entryDx=0;entryDy=0;fillColor=#f5f5f5;strokeColor=#FFFFFF;" parent="1" source="3" target="5" edge="1">
                    <mxGeometry relative="1" as="geometry"/>
                </mxCell>
                <mxCell id="3" value="Loja" style="rounded=0;whiteSpace=wrap;html=1;fillColor=#647687;fontColor=#ffffff;strokeColor=#314354;" parent="1" vertex="1">
                    <mxGeometry x="504" y="100" width="120" height="60" as="geometry"/>
                </mxCell>
                <mxCell id="9" style="html=1;exitX=0.5;exitY=1;exitDx=0;exitDy=0;fillColor=#f5f5f5;strokeColor=#FFFFFF;" parent="1" source="5" target="8" edge="1">
                    <mxGeometry relative="1" as="geometry"/>
                </mxCell>
                <mxCell id="5" value="Vendas" style="rhombus;whiteSpace=wrap;html=1;fillColor=#647687;fontColor=#ffffff;strokeColor=#314354;" parent="1" vertex="1">
                    <mxGeometry x="360" y="230" width="190" height="80" as="geometry"/>
                </mxCell>
                <mxCell id="8" value="Produto" style="rounded=0;whiteSpace=wrap;html=1;fillColor=#647687;fontColor=#ffffff;strokeColor=#314354;" parent="1" vertex="1">
                    <mxGeometry x="395" y="370" width="120" height="60" as="geometry"/>
                </mxCell>
            </root>
        </mxGraphModel>
    </diagram>
    <diagram id="g1V3IpA1iGvHlMI11iZi" name="Evento-1">
        <mxGraphModel dx="1226" dy="437" grid="1" gridSize="10" guides="1" tooltips="1" connect="1" arrows="1" fold="1" page="1" pageScale="1" pageWidth="827" pageHeight="1169" math="0" shadow="0">
            <root>
                <mxCell id="pChICqhrXKHDW8uU8NWd-0"/>
                <mxCell id="pChICqhrXKHDW8uU8NWd-1" parent="pChICqhrXKHDW8uU8NWd-0"/>
                <mxCell id="pChICqhrXKHDW8uU8NWd-2" value="" style="verticalLabelPosition=bottom;verticalAlign=top;html=1;shape=mxgraph.basic.cone2;dx=0.5;dy=0.9;rotation=-180;fillColor=#f0a30a;fontColor=#000000;strokeColor=#BD7000;" vertex="1" parent="pChICqhrXKHDW8uU8NWd-1">
                    <mxGeometry x="50" y="120" width="100" height="100" as="geometry"/>
                </mxCell>
                <mxCell id="pChICqhrXKHDW8uU8NWd-3" value="" style="rounded=1;whiteSpace=wrap;html=1;fillColor=#a0522d;fontColor=#ffffff;strokeColor=#6D1F00;" vertex="1" parent="pChICqhrXKHDW8uU8NWd-1">
                    <mxGeometry x="55" y="90" width="90" height="30" as="geometry"/>
                </mxCell>
                <mxCell id="pChICqhrXKHDW8uU8NWd-4" value="" style="rounded=1;whiteSpace=wrap;html=1;fillColor=#f9f7ed;strokeColor=#36393d;" vertex="1" parent="pChICqhrXKHDW8uU8NWd-1">
                    <mxGeometry x="67.5" y="70" width="65" height="20" as="geometry"/>
                </mxCell>
                <mxCell id="pChICqhrXKHDW8uU8NWd-5" value="" style="rounded=1;whiteSpace=wrap;html=1;fillColor=#a0522d;fontColor=#ffffff;strokeColor=#6D1F00;" vertex="1" parent="pChICqhrXKHDW8uU8NWd-1">
                    <mxGeometry x="78.75" y="50" width="42.5" height="20" as="geometry"/>
                </mxCell>
                <mxCell id="pChICqhrXKHDW8uU8NWd-6" value="" style="triangle;whiteSpace=wrap;html=1;rotation=-90;fillColor=#f5f5f5;gradientColor=#b3b3b3;strokeColor=#666666;" vertex="1" parent="pChICqhrXKHDW8uU8NWd-1">
                    <mxGeometry x="85" y="20" width="30" height="30" as="geometry"/>
                </mxCell>
                <mxCell id="pChICqhrXKHDW8uU8NWd-7" value="&quot;Victor&quot;&lt;br&gt;Compra&lt;br&gt;&quot;Sorvete de ninho trufado&quot;&lt;br&gt;da loja&lt;br&gt;&quot;Loja 2 - rede sorveteria&quot;" style="html=1;outlineConnect=0;whiteSpace=wrap;fillColor=#6a00ff;shape=mxgraph.archimate3.event;strokeColor=#3700CC;fontColor=#ffffff;" vertex="1" parent="pChICqhrXKHDW8uU8NWd-1">
                    <mxGeometry x="7.5" y="240" width="332.5" height="130" as="geometry"/>
                </mxCell>
                <mxCell id="pChICqhrXKHDW8uU8NWd-8" value="Victor" style="shape=umlActor;verticalLabelPosition=bottom;verticalAlign=top;html=1;outlineConnect=0;" vertex="1" parent="pChICqhrXKHDW8uU8NWd-1">
                    <mxGeometry x="170" y="50" width="90" height="120" as="geometry"/>
                </mxCell>
                <mxCell id="pChICqhrXKHDW8uU8NWd-15" value="Link_Vendas" style="swimlane;fontStyle=0;childLayout=stackLayout;horizontal=1;startSize=30;horizontalStack=0;resizeParent=1;resizeParentMax=0;resizeLast=0;collapsible=1;marginBottom=0;fillColor=#e51400;fontColor=#ffffff;strokeColor=#B20000;" vertex="1" parent="pChICqhrXKHDW8uU8NWd-1">
                    <mxGeometry x="770" y="240" width="140" height="120" as="geometry"/>
                </mxCell>
                <mxCell id="pChICqhrXKHDW8uU8NWd-16" value="Victor" style="text;strokeColor=none;fillColor=none;align=left;verticalAlign=middle;spacingLeft=4;spacingRight=4;overflow=hidden;points=[[0,0.5],[1,0.5]];portConstraint=eastwest;rotatable=0;" vertex="1" parent="pChICqhrXKHDW8uU8NWd-15">
                    <mxGeometry y="30" width="140" height="30" as="geometry"/>
                </mxCell>
                <mxCell id="pChICqhrXKHDW8uU8NWd-17" value="Ninho Trufado" style="text;strokeColor=none;fillColor=none;align=left;verticalAlign=middle;spacingLeft=4;spacingRight=4;overflow=hidden;points=[[0,0.5],[1,0.5]];portConstraint=eastwest;rotatable=0;" vertex="1" parent="pChICqhrXKHDW8uU8NWd-15">
                    <mxGeometry y="60" width="140" height="30" as="geometry"/>
                </mxCell>
                <mxCell id="pChICqhrXKHDW8uU8NWd-18" value="Loja 2" style="text;strokeColor=none;fillColor=none;align=left;verticalAlign=middle;spacingLeft=4;spacingRight=4;overflow=hidden;points=[[0,0.5],[1,0.5]];portConstraint=eastwest;rotatable=0;" vertex="1" parent="pChICqhrXKHDW8uU8NWd-15">
                    <mxGeometry y="90" width="140" height="30" as="geometry"/>
                </mxCell>
                <mxCell id="pChICqhrXKHDW8uU8NWd-19" value="Hub_Loja" style="swimlane;fontStyle=0;childLayout=stackLayout;horizontal=1;startSize=30;horizontalStack=0;resizeParent=1;resizeParentMax=0;resizeLast=0;collapsible=1;marginBottom=0;fillColor=#1ba1e2;fontColor=#ffffff;strokeColor=#006EAF;" vertex="1" parent="pChICqhrXKHDW8uU8NWd-1">
                    <mxGeometry x="770" y="440" width="140" height="120" as="geometry"/>
                </mxCell>
                <mxCell id="pChICqhrXKHDW8uU8NWd-20" value="Loja 2" style="text;strokeColor=none;fillColor=none;align=left;verticalAlign=middle;spacingLeft=4;spacingRight=4;overflow=hidden;points=[[0,0.5],[1,0.5]];portConstraint=eastwest;rotatable=0;" vertex="1" parent="pChICqhrXKHDW8uU8NWd-19">
                    <mxGeometry y="30" width="140" height="30" as="geometry"/>
                </mxCell>
                <mxCell id="pChICqhrXKHDW8uU8NWd-21" value="..." style="text;strokeColor=none;fillColor=none;align=left;verticalAlign=middle;spacingLeft=4;spacingRight=4;overflow=hidden;points=[[0,0.5],[1,0.5]];portConstraint=eastwest;rotatable=0;" vertex="1" parent="pChICqhrXKHDW8uU8NWd-19">
                    <mxGeometry y="60" width="140" height="30" as="geometry"/>
                </mxCell>
                <mxCell id="pChICqhrXKHDW8uU8NWd-22" value="..." style="text;strokeColor=none;fillColor=none;align=left;verticalAlign=middle;spacingLeft=4;spacingRight=4;overflow=hidden;points=[[0,0.5],[1,0.5]];portConstraint=eastwest;rotatable=0;" vertex="1" parent="pChICqhrXKHDW8uU8NWd-19">
                    <mxGeometry y="90" width="140" height="30" as="geometry"/>
                </mxCell>
                <mxCell id="pChICqhrXKHDW8uU8NWd-23" value="SAT_Vendas" style="swimlane;fontStyle=0;childLayout=stackLayout;horizontal=1;startSize=30;horizontalStack=0;resizeParent=1;resizeParentMax=0;resizeLast=0;collapsible=1;marginBottom=0;fillColor=#e3c800;fontColor=#000000;strokeColor=#B09500;" vertex="1" parent="pChICqhrXKHDW8uU8NWd-1">
                    <mxGeometry x="570" y="240" width="140" height="120" as="geometry"/>
                </mxCell>
                <mxCell id="pChICqhrXKHDW8uU8NWd-24" value="02/01/2022" style="text;strokeColor=none;fillColor=none;align=left;verticalAlign=middle;spacingLeft=4;spacingRight=4;overflow=hidden;points=[[0,0.5],[1,0.5]];portConstraint=eastwest;rotatable=0;" vertex="1" parent="pChICqhrXKHDW8uU8NWd-23">
                    <mxGeometry y="30" width="140" height="30" as="geometry"/>
                </mxCell>
                <mxCell id="pChICqhrXKHDW8uU8NWd-25" value="..." style="text;strokeColor=none;fillColor=none;align=left;verticalAlign=middle;spacingLeft=4;spacingRight=4;overflow=hidden;points=[[0,0.5],[1,0.5]];portConstraint=eastwest;rotatable=0;" vertex="1" parent="pChICqhrXKHDW8uU8NWd-23">
                    <mxGeometry y="60" width="140" height="30" as="geometry"/>
                </mxCell>
                <mxCell id="pChICqhrXKHDW8uU8NWd-26" value="..." style="text;strokeColor=none;fillColor=none;align=left;verticalAlign=middle;spacingLeft=4;spacingRight=4;overflow=hidden;points=[[0,0.5],[1,0.5]];portConstraint=eastwest;rotatable=0;" vertex="1" parent="pChICqhrXKHDW8uU8NWd-23">
                    <mxGeometry y="90" width="140" height="30" as="geometry"/>
                </mxCell>
                <mxCell id="pChICqhrXKHDW8uU8NWd-27" value="HUB_Cliente" style="swimlane;fontStyle=0;childLayout=stackLayout;horizontal=1;startSize=30;horizontalStack=0;resizeParent=1;resizeParentMax=0;resizeLast=0;collapsible=1;marginBottom=0;fillColor=#1ba1e2;fontColor=#ffffff;strokeColor=#006EAF;" vertex="1" parent="pChICqhrXKHDW8uU8NWd-1">
                    <mxGeometry x="630" y="20" width="140" height="120" as="geometry"/>
                </mxCell>
                <mxCell id="pChICqhrXKHDW8uU8NWd-28" value="Victor" style="text;strokeColor=none;fillColor=none;align=left;verticalAlign=middle;spacingLeft=4;spacingRight=4;overflow=hidden;points=[[0,0.5],[1,0.5]];portConstraint=eastwest;rotatable=0;" vertex="1" parent="pChICqhrXKHDW8uU8NWd-27">
                    <mxGeometry y="30" width="140" height="30" as="geometry"/>
                </mxCell>
                <mxCell id="pChICqhrXKHDW8uU8NWd-29" value="..." style="text;strokeColor=none;fillColor=none;align=left;verticalAlign=middle;spacingLeft=4;spacingRight=4;overflow=hidden;points=[[0,0.5],[1,0.5]];portConstraint=eastwest;rotatable=0;" vertex="1" parent="pChICqhrXKHDW8uU8NWd-27">
                    <mxGeometry y="60" width="140" height="30" as="geometry"/>
                </mxCell>
                <mxCell id="pChICqhrXKHDW8uU8NWd-30" value="..." style="text;strokeColor=none;fillColor=none;align=left;verticalAlign=middle;spacingLeft=4;spacingRight=4;overflow=hidden;points=[[0,0.5],[1,0.5]];portConstraint=eastwest;rotatable=0;" vertex="1" parent="pChICqhrXKHDW8uU8NWd-27">
                    <mxGeometry y="90" width="140" height="30" as="geometry"/>
                </mxCell>
                <mxCell id="pChICqhrXKHDW8uU8NWd-31" value="Hub_Produto" style="swimlane;fontStyle=0;childLayout=stackLayout;horizontal=1;startSize=30;horizontalStack=0;resizeParent=1;resizeParentMax=0;resizeLast=0;collapsible=1;marginBottom=0;fillColor=#1ba1e2;fontColor=#ffffff;strokeColor=#006EAF;" vertex="1" parent="pChICqhrXKHDW8uU8NWd-1">
                    <mxGeometry x="910" y="20" width="140" height="120" as="geometry"/>
                </mxCell>
                <mxCell id="pChICqhrXKHDW8uU8NWd-32" value="Ninho Trufado" style="text;strokeColor=none;fillColor=none;align=left;verticalAlign=middle;spacingLeft=4;spacingRight=4;overflow=hidden;points=[[0,0.5],[1,0.5]];portConstraint=eastwest;rotatable=0;" vertex="1" parent="pChICqhrXKHDW8uU8NWd-31">
                    <mxGeometry y="30" width="140" height="30" as="geometry"/>
                </mxCell>
                <mxCell id="pChICqhrXKHDW8uU8NWd-33" value="..." style="text;strokeColor=none;fillColor=none;align=left;verticalAlign=middle;spacingLeft=4;spacingRight=4;overflow=hidden;points=[[0,0.5],[1,0.5]];portConstraint=eastwest;rotatable=0;" vertex="1" parent="pChICqhrXKHDW8uU8NWd-31">
                    <mxGeometry y="60" width="140" height="30" as="geometry"/>
                </mxCell>
                <mxCell id="pChICqhrXKHDW8uU8NWd-34" value="..." style="text;strokeColor=none;fillColor=none;align=left;verticalAlign=middle;spacingLeft=4;spacingRight=4;overflow=hidden;points=[[0,0.5],[1,0.5]];portConstraint=eastwest;rotatable=0;" vertex="1" parent="pChICqhrXKHDW8uU8NWd-31">
                    <mxGeometry y="90" width="140" height="30" as="geometry"/>
                </mxCell>
                <mxCell id="pChICqhrXKHDW8uU8NWd-35" style="edgeStyle=none;rounded=0;html=1;entryX=0.25;entryY=0;entryDx=0;entryDy=0;" edge="1" parent="pChICqhrXKHDW8uU8NWd-1" source="pChICqhrXKHDW8uU8NWd-30" target="pChICqhrXKHDW8uU8NWd-15">
                    <mxGeometry relative="1" as="geometry"/>
                </mxCell>
                <mxCell id="pChICqhrXKHDW8uU8NWd-36" style="edgeStyle=none;rounded=0;html=1;entryX=0.629;entryY=-0.008;entryDx=0;entryDy=0;entryPerimeter=0;" edge="1" parent="pChICqhrXKHDW8uU8NWd-1" source="pChICqhrXKHDW8uU8NWd-34" target="pChICqhrXKHDW8uU8NWd-15">
                    <mxGeometry relative="1" as="geometry"/>
                </mxCell>
                <mxCell id="pChICqhrXKHDW8uU8NWd-37" style="edgeStyle=none;rounded=0;html=1;entryX=1;entryY=0.5;entryDx=0;entryDy=0;" edge="1" parent="pChICqhrXKHDW8uU8NWd-1" source="pChICqhrXKHDW8uU8NWd-17" target="pChICqhrXKHDW8uU8NWd-25">
                    <mxGeometry relative="1" as="geometry"/>
                </mxCell>
                <mxCell id="pChICqhrXKHDW8uU8NWd-38" style="edgeStyle=none;rounded=0;html=1;entryX=0.479;entryY=1.033;entryDx=0;entryDy=0;entryPerimeter=0;" edge="1" parent="pChICqhrXKHDW8uU8NWd-1" source="pChICqhrXKHDW8uU8NWd-20" target="pChICqhrXKHDW8uU8NWd-18">
                    <mxGeometry relative="1" as="geometry"/>
                </mxCell>
                <mxCell id="pChICqhrXKHDW8uU8NWd-39" value="" style="curved=1;endArrow=classic;html=1;rounded=0;exitX=1;exitY=0.5;exitDx=0;exitDy=0;exitPerimeter=0;" edge="1" parent="pChICqhrXKHDW8uU8NWd-1" source="pChICqhrXKHDW8uU8NWd-7">
                    <mxGeometry width="50" height="50" relative="1" as="geometry">
                        <mxPoint x="420" y="270" as="sourcePoint"/>
                        <mxPoint x="550" y="210" as="targetPoint"/>
                        <Array as="points">
                            <mxPoint x="470" y="270"/>
                            <mxPoint x="420" y="220"/>
                        </Array>
                    </mxGeometry>
                </mxCell>
            </root>
        </mxGraphModel>
    </diagram>
    <diagram name="Eventos-n" id="Toc9hheSvNmYUVV_5bYc">
        <mxGraphModel dx="1226" dy="437" grid="1" gridSize="10" guides="1" tooltips="1" connect="1" arrows="1" fold="1" page="1" pageScale="1" pageWidth="827" pageHeight="1169" math="0" shadow="0">
            <root>
                <mxCell id="Yj0vvcmh0mu3oPK84LlD-0"/>
                <mxCell id="Yj0vvcmh0mu3oPK84LlD-1" parent="Yj0vvcmh0mu3oPK84LlD-0"/>
                <mxCell id="Yj0vvcmh0mu3oPK84LlD-2" value="" style="verticalLabelPosition=bottom;verticalAlign=top;html=1;shape=mxgraph.basic.cone2;dx=0.5;dy=0.9;rotation=-180;fillColor=#f0a30a;fontColor=#000000;strokeColor=#BD7000;" vertex="1" parent="Yj0vvcmh0mu3oPK84LlD-1">
                    <mxGeometry x="50" y="120" width="100" height="100" as="geometry"/>
                </mxCell>
                <mxCell id="Yj0vvcmh0mu3oPK84LlD-3" value="" style="rounded=1;whiteSpace=wrap;html=1;fillColor=#a0522d;fontColor=#ffffff;strokeColor=#6D1F00;" vertex="1" parent="Yj0vvcmh0mu3oPK84LlD-1">
                    <mxGeometry x="55" y="90" width="90" height="30" as="geometry"/>
                </mxCell>
                <mxCell id="Yj0vvcmh0mu3oPK84LlD-4" value="" style="rounded=1;whiteSpace=wrap;html=1;fillColor=#f9f7ed;strokeColor=#36393d;" vertex="1" parent="Yj0vvcmh0mu3oPK84LlD-1">
                    <mxGeometry x="67.5" y="70" width="65" height="20" as="geometry"/>
                </mxCell>
                <mxCell id="Yj0vvcmh0mu3oPK84LlD-5" value="" style="rounded=1;whiteSpace=wrap;html=1;fillColor=#a0522d;fontColor=#ffffff;strokeColor=#6D1F00;" vertex="1" parent="Yj0vvcmh0mu3oPK84LlD-1">
                    <mxGeometry x="78.75" y="50" width="42.5" height="20" as="geometry"/>
                </mxCell>
                <mxCell id="Yj0vvcmh0mu3oPK84LlD-6" value="" style="triangle;whiteSpace=wrap;html=1;rotation=-90;fillColor=#f5f5f5;gradientColor=#b3b3b3;strokeColor=#666666;" vertex="1" parent="Yj0vvcmh0mu3oPK84LlD-1">
                    <mxGeometry x="85" y="20" width="30" height="30" as="geometry"/>
                </mxCell>
                <mxCell id="Yj0vvcmh0mu3oPK84LlD-7" style="edgeStyle=none;html=1;rounded=0;shape=link;dashed=1;" edge="1" parent="Yj0vvcmh0mu3oPK84LlD-1" source="Yj0vvcmh0mu3oPK84LlD-8" target="Yj0vvcmh0mu3oPK84LlD-11">
                    <mxGeometry relative="1" as="geometry"/>
                </mxCell>
                <mxCell id="Yj0vvcmh0mu3oPK84LlD-8" value="&quot;Victor&quot;&lt;br&gt;Compra&lt;br&gt;&quot;Sorvete de ninho trufado&quot;&lt;br&gt;da loja&lt;br&gt;&quot;Loja 2 - rede sorveteria&quot;" style="html=1;outlineConnect=0;whiteSpace=wrap;fillColor=#6a00ff;shape=mxgraph.archimate3.event;strokeColor=#3700CC;fontColor=#ffffff;" vertex="1" parent="Yj0vvcmh0mu3oPK84LlD-1">
                    <mxGeometry x="7.5" y="240" width="332.5" height="130" as="geometry"/>
                </mxCell>
                <mxCell id="Yj0vvcmh0mu3oPK84LlD-9" value="Victor" style="shape=umlActor;verticalLabelPosition=bottom;verticalAlign=top;html=1;outlineConnect=0;" vertex="1" parent="Yj0vvcmh0mu3oPK84LlD-1">
                    <mxGeometry x="170" y="50" width="90" height="120" as="geometry"/>
                </mxCell>
                <mxCell id="Yj0vvcmh0mu3oPK84LlD-10" style="edgeStyle=none;shape=link;rounded=0;html=1;dashed=1;" edge="1" parent="Yj0vvcmh0mu3oPK84LlD-1" source="Yj0vvcmh0mu3oPK84LlD-11" target="Yj0vvcmh0mu3oPK84LlD-12">
                    <mxGeometry relative="1" as="geometry"/>
                </mxCell>
                <mxCell id="Yj0vvcmh0mu3oPK84LlD-11" value="&quot;Victor&quot;&lt;br&gt;Compra&lt;br&gt;&quot;Sorvete de ninho trufado&quot;&lt;br&gt;da loja&lt;br&gt;&quot;Loja 2 - rede sorveteria&quot;" style="html=1;outlineConnect=0;whiteSpace=wrap;fillColor=#6a00ff;shape=mxgraph.archimate3.event;strokeColor=#3700CC;fontColor=#ffffff;" vertex="1" parent="Yj0vvcmh0mu3oPK84LlD-1">
                    <mxGeometry x="7.5" y="440" width="332.5" height="130" as="geometry"/>
                </mxCell>
                <mxCell id="Yj0vvcmh0mu3oPK84LlD-12" value="&quot;Victor&quot;&lt;br&gt;Compra&lt;br&gt;&quot;Sorvete de ninho trufado&quot;&lt;br&gt;da loja&lt;br&gt;&quot;Loja 2 - rede sorveteria&quot;" style="html=1;outlineConnect=0;whiteSpace=wrap;fillColor=#6a00ff;shape=mxgraph.archimate3.event;strokeColor=#3700CC;fontColor=#ffffff;" vertex="1" parent="Yj0vvcmh0mu3oPK84LlD-1">
                    <mxGeometry x="7.5" y="650" width="332.5" height="130" as="geometry"/>
                </mxCell>
                <mxCell id="Yj0vvcmh0mu3oPK84LlD-13" value="Link_Vendas" style="swimlane;fontStyle=0;childLayout=stackLayout;horizontal=1;startSize=30;horizontalStack=0;resizeParent=1;resizeParentMax=0;resizeLast=0;collapsible=1;marginBottom=0;fillColor=#e51400;fontColor=#ffffff;strokeColor=#B20000;" vertex="1" parent="Yj0vvcmh0mu3oPK84LlD-1">
                    <mxGeometry x="770" y="240" width="140" height="120" as="geometry"/>
                </mxCell>
                <mxCell id="Yj0vvcmh0mu3oPK84LlD-14" value="Victor" style="text;strokeColor=none;fillColor=none;align=left;verticalAlign=middle;spacingLeft=4;spacingRight=4;overflow=hidden;points=[[0,0.5],[1,0.5]];portConstraint=eastwest;rotatable=0;" vertex="1" parent="Yj0vvcmh0mu3oPK84LlD-13">
                    <mxGeometry y="30" width="140" height="30" as="geometry"/>
                </mxCell>
                <mxCell id="Yj0vvcmh0mu3oPK84LlD-15" value="Ninho Trufado" style="text;strokeColor=none;fillColor=none;align=left;verticalAlign=middle;spacingLeft=4;spacingRight=4;overflow=hidden;points=[[0,0.5],[1,0.5]];portConstraint=eastwest;rotatable=0;" vertex="1" parent="Yj0vvcmh0mu3oPK84LlD-13">
                    <mxGeometry y="60" width="140" height="30" as="geometry"/>
                </mxCell>
                <mxCell id="Yj0vvcmh0mu3oPK84LlD-16" value="Loja 2" style="text;strokeColor=none;fillColor=none;align=left;verticalAlign=middle;spacingLeft=4;spacingRight=4;overflow=hidden;points=[[0,0.5],[1,0.5]];portConstraint=eastwest;rotatable=0;" vertex="1" parent="Yj0vvcmh0mu3oPK84LlD-13">
                    <mxGeometry y="90" width="140" height="30" as="geometry"/>
                </mxCell>
                <mxCell id="Yj0vvcmh0mu3oPK84LlD-17" value="Hub_Loja" style="swimlane;fontStyle=0;childLayout=stackLayout;horizontal=1;startSize=30;horizontalStack=0;resizeParent=1;resizeParentMax=0;resizeLast=0;collapsible=1;marginBottom=0;fillColor=#1ba1e2;fontColor=#ffffff;strokeColor=#006EAF;" vertex="1" parent="Yj0vvcmh0mu3oPK84LlD-1">
                    <mxGeometry x="770" y="440" width="140" height="120" as="geometry"/>
                </mxCell>
                <mxCell id="Yj0vvcmh0mu3oPK84LlD-18" value="Loja 2" style="text;strokeColor=none;fillColor=none;align=left;verticalAlign=middle;spacingLeft=4;spacingRight=4;overflow=hidden;points=[[0,0.5],[1,0.5]];portConstraint=eastwest;rotatable=0;" vertex="1" parent="Yj0vvcmh0mu3oPK84LlD-17">
                    <mxGeometry y="30" width="140" height="30" as="geometry"/>
                </mxCell>
                <mxCell id="Yj0vvcmh0mu3oPK84LlD-19" value="..." style="text;strokeColor=none;fillColor=none;align=left;verticalAlign=middle;spacingLeft=4;spacingRight=4;overflow=hidden;points=[[0,0.5],[1,0.5]];portConstraint=eastwest;rotatable=0;" vertex="1" parent="Yj0vvcmh0mu3oPK84LlD-17">
                    <mxGeometry y="60" width="140" height="30" as="geometry"/>
                </mxCell>
                <mxCell id="Yj0vvcmh0mu3oPK84LlD-20" value="..." style="text;strokeColor=none;fillColor=none;align=left;verticalAlign=middle;spacingLeft=4;spacingRight=4;overflow=hidden;points=[[0,0.5],[1,0.5]];portConstraint=eastwest;rotatable=0;" vertex="1" parent="Yj0vvcmh0mu3oPK84LlD-17">
                    <mxGeometry y="90" width="140" height="30" as="geometry"/>
                </mxCell>
                <mxCell id="Yj0vvcmh0mu3oPK84LlD-21" value="SAT_Vendas" style="swimlane;fontStyle=0;childLayout=stackLayout;horizontal=1;startSize=30;horizontalStack=0;resizeParent=1;resizeParentMax=0;resizeLast=0;collapsible=1;marginBottom=0;fillColor=#e3c800;fontColor=#000000;strokeColor=#B09500;" vertex="1" parent="Yj0vvcmh0mu3oPK84LlD-1">
                    <mxGeometry x="570" y="240" width="140" height="120" as="geometry"/>
                </mxCell>
                <mxCell id="Yj0vvcmh0mu3oPK84LlD-22" value="02/01/2022" style="text;strokeColor=none;fillColor=none;align=left;verticalAlign=middle;spacingLeft=4;spacingRight=4;overflow=hidden;points=[[0,0.5],[1,0.5]];portConstraint=eastwest;rotatable=0;" vertex="1" parent="Yj0vvcmh0mu3oPK84LlD-21">
                    <mxGeometry y="30" width="140" height="30" as="geometry"/>
                </mxCell>
                <mxCell id="Yj0vvcmh0mu3oPK84LlD-23" value="..." style="text;strokeColor=none;fillColor=none;align=left;verticalAlign=middle;spacingLeft=4;spacingRight=4;overflow=hidden;points=[[0,0.5],[1,0.5]];portConstraint=eastwest;rotatable=0;" vertex="1" parent="Yj0vvcmh0mu3oPK84LlD-21">
                    <mxGeometry y="60" width="140" height="30" as="geometry"/>
                </mxCell>
                <mxCell id="Yj0vvcmh0mu3oPK84LlD-24" value="..." style="text;strokeColor=none;fillColor=none;align=left;verticalAlign=middle;spacingLeft=4;spacingRight=4;overflow=hidden;points=[[0,0.5],[1,0.5]];portConstraint=eastwest;rotatable=0;" vertex="1" parent="Yj0vvcmh0mu3oPK84LlD-21">
                    <mxGeometry y="90" width="140" height="30" as="geometry"/>
                </mxCell>
                <mxCell id="Yj0vvcmh0mu3oPK84LlD-25" value="HUB_Cliente" style="swimlane;fontStyle=0;childLayout=stackLayout;horizontal=1;startSize=30;horizontalStack=0;resizeParent=1;resizeParentMax=0;resizeLast=0;collapsible=1;marginBottom=0;fillColor=#1ba1e2;fontColor=#ffffff;strokeColor=#006EAF;" vertex="1" parent="Yj0vvcmh0mu3oPK84LlD-1">
                    <mxGeometry x="630" y="20" width="140" height="120" as="geometry"/>
                </mxCell>
                <mxCell id="Yj0vvcmh0mu3oPK84LlD-26" value="Victor" style="text;strokeColor=none;fillColor=none;align=left;verticalAlign=middle;spacingLeft=4;spacingRight=4;overflow=hidden;points=[[0,0.5],[1,0.5]];portConstraint=eastwest;rotatable=0;" vertex="1" parent="Yj0vvcmh0mu3oPK84LlD-25">
                    <mxGeometry y="30" width="140" height="30" as="geometry"/>
                </mxCell>
                <mxCell id="Yj0vvcmh0mu3oPK84LlD-27" value="..." style="text;strokeColor=none;fillColor=none;align=left;verticalAlign=middle;spacingLeft=4;spacingRight=4;overflow=hidden;points=[[0,0.5],[1,0.5]];portConstraint=eastwest;rotatable=0;" vertex="1" parent="Yj0vvcmh0mu3oPK84LlD-25">
                    <mxGeometry y="60" width="140" height="30" as="geometry"/>
                </mxCell>
                <mxCell id="Yj0vvcmh0mu3oPK84LlD-28" value="..." style="text;strokeColor=none;fillColor=none;align=left;verticalAlign=middle;spacingLeft=4;spacingRight=4;overflow=hidden;points=[[0,0.5],[1,0.5]];portConstraint=eastwest;rotatable=0;" vertex="1" parent="Yj0vvcmh0mu3oPK84LlD-25">
                    <mxGeometry y="90" width="140" height="30" as="geometry"/>
                </mxCell>
                <mxCell id="Yj0vvcmh0mu3oPK84LlD-29" value="Hub_Produto" style="swimlane;fontStyle=0;childLayout=stackLayout;horizontal=1;startSize=30;horizontalStack=0;resizeParent=1;resizeParentMax=0;resizeLast=0;collapsible=1;marginBottom=0;fillColor=#1ba1e2;fontColor=#ffffff;strokeColor=#006EAF;" vertex="1" parent="Yj0vvcmh0mu3oPK84LlD-1">
                    <mxGeometry x="910" y="20" width="140" height="120" as="geometry"/>
                </mxCell>
                <mxCell id="Yj0vvcmh0mu3oPK84LlD-30" value="Ninho Trufado" style="text;strokeColor=none;fillColor=none;align=left;verticalAlign=middle;spacingLeft=4;spacingRight=4;overflow=hidden;points=[[0,0.5],[1,0.5]];portConstraint=eastwest;rotatable=0;" vertex="1" parent="Yj0vvcmh0mu3oPK84LlD-29">
                    <mxGeometry y="30" width="140" height="30" as="geometry"/>
                </mxCell>
                <mxCell id="Yj0vvcmh0mu3oPK84LlD-31" value="..." style="text;strokeColor=none;fillColor=none;align=left;verticalAlign=middle;spacingLeft=4;spacingRight=4;overflow=hidden;points=[[0,0.5],[1,0.5]];portConstraint=eastwest;rotatable=0;" vertex="1" parent="Yj0vvcmh0mu3oPK84LlD-29">
                    <mxGeometry y="60" width="140" height="30" as="geometry"/>
                </mxCell>
                <mxCell id="Yj0vvcmh0mu3oPK84LlD-32" value="..." style="text;strokeColor=none;fillColor=none;align=left;verticalAlign=middle;spacingLeft=4;spacingRight=4;overflow=hidden;points=[[0,0.5],[1,0.5]];portConstraint=eastwest;rotatable=0;" vertex="1" parent="Yj0vvcmh0mu3oPK84LlD-29">
                    <mxGeometry y="90" width="140" height="30" as="geometry"/>
                </mxCell>
                <mxCell id="Yj0vvcmh0mu3oPK84LlD-33" style="edgeStyle=none;rounded=0;html=1;entryX=0.25;entryY=0;entryDx=0;entryDy=0;" edge="1" parent="Yj0vvcmh0mu3oPK84LlD-1" source="Yj0vvcmh0mu3oPK84LlD-28" target="Yj0vvcmh0mu3oPK84LlD-13">
                    <mxGeometry relative="1" as="geometry"/>
                </mxCell>
                <mxCell id="Yj0vvcmh0mu3oPK84LlD-34" style="edgeStyle=none;rounded=0;html=1;entryX=0.629;entryY=-0.008;entryDx=0;entryDy=0;entryPerimeter=0;" edge="1" parent="Yj0vvcmh0mu3oPK84LlD-1" source="Yj0vvcmh0mu3oPK84LlD-32" target="Yj0vvcmh0mu3oPK84LlD-13">
                    <mxGeometry relative="1" as="geometry"/>
                </mxCell>
                <mxCell id="Yj0vvcmh0mu3oPK84LlD-35" style="edgeStyle=none;rounded=0;html=1;entryX=1;entryY=0.5;entryDx=0;entryDy=0;" edge="1" parent="Yj0vvcmh0mu3oPK84LlD-1" source="Yj0vvcmh0mu3oPK84LlD-15" target="Yj0vvcmh0mu3oPK84LlD-23">
                    <mxGeometry relative="1" as="geometry"/>
                </mxCell>
                <mxCell id="Yj0vvcmh0mu3oPK84LlD-36" style="edgeStyle=none;rounded=0;html=1;entryX=0.479;entryY=1.033;entryDx=0;entryDy=0;entryPerimeter=0;" edge="1" parent="Yj0vvcmh0mu3oPK84LlD-1" source="Yj0vvcmh0mu3oPK84LlD-18" target="Yj0vvcmh0mu3oPK84LlD-16">
                    <mxGeometry relative="1" as="geometry"/>
                </mxCell>
                <mxCell id="Yj0vvcmh0mu3oPK84LlD-37" value="" style="curved=1;endArrow=classic;html=1;rounded=0;exitX=1;exitY=0.5;exitDx=0;exitDy=0;exitPerimeter=0;" edge="1" parent="Yj0vvcmh0mu3oPK84LlD-1" source="Yj0vvcmh0mu3oPK84LlD-8">
                    <mxGeometry width="50" height="50" relative="1" as="geometry">
                        <mxPoint x="420" y="270" as="sourcePoint"/>
                        <mxPoint x="550" y="210" as="targetPoint"/>
                        <Array as="points">
                            <mxPoint x="470" y="270"/>
                            <mxPoint x="420" y="220"/>
                        </Array>
                    </mxGeometry>
                </mxCell>
            </root>
        </mxGraphModel>
    </diagram>
</mxfile>